<svg xmlns="http://www.w3.org/2000/svg" xml:space="preserve" viewBox="0 0 512 512" height="60" width="60"><path d="M494.345 472.276H17.655C7.904 472.276 0 464.372 0 454.621V57.379c0-9.751 7.904-17.655 17.655-17.655h476.69c9.751 0 17.655 7.904 17.655 17.655V454.62c0 9.752-7.904 17.656-17.655 17.656z" style="fill:#e4eaf8"/><path d="M494.345 472.276H256V83.862h256v370.759c0 9.751-7.904 17.655-17.655 17.655z" style="fill:#5b5d6e"/><path d="M512 83.862H0V57.379c0-9.751 7.904-17.655 17.655-17.655h476.69c9.751 0 17.655 7.904 17.655 17.655v26.483z" style="fill:#d5dced"/><path d="M26.483 75.034h-8.828a8.829 8.829 0 0 1-8.828-8.828v-8.828a8.829 8.829 0 0 1 8.828-8.828h8.828a8.829 8.829 0 0 1 8.828 8.828v8.828a8.829 8.829 0 0 1-8.828 8.828z" style="fill:#e4eaf8"/><path d="M423.724 75.034h-8.828a8.829 8.829 0 0 1-8.828-8.828v-8.828a8.829 8.829 0 0 1 8.828-8.828h8.828a8.829 8.829 0 0 1 8.828 8.828v8.828a8.828 8.828 0 0 1-8.828 8.828z" style="fill:#ff5050"/><path d="M459.034 75.034h-8.828a8.829 8.829 0 0 1-8.828-8.828v-8.828a8.829 8.829 0 0 1 8.828-8.828h8.828a8.829 8.829 0 0 1 8.828 8.828v8.828a8.827 8.827 0 0 1-8.828 8.828z" style="fill:#fff082"/><path d="M494.345 75.034h-8.828a8.829 8.829 0 0 1-8.828-8.828v-8.828a8.829 8.829 0 0 1 8.828-8.828h8.828a8.829 8.829 0 0 1 8.828 8.828v8.828a8.829 8.829 0 0 1-8.828 8.828z" style="fill:#a0ffb4"/><path d="m144.898 150.826-59.75 59.75a8.826 8.826 0 0 0-.54 11.893L256 428.138V145.655h-98.618a17.66 17.66 0 0 0-12.484 5.171z" style="fill:#00c3ff"/><path d="m256 145.655-79.448 70.621H256z" style="fill:#80e1ff"/><path d="m176.552 216.276-25.97-69.254a17.64 17.64 0 0 0-5.681 3.801L85.15 210.575c-1.578 1.578-2.415 3.619-2.543 5.7l93.945.001zm0 0L256 428.138V216.276z" style="fill:#00aaf0"/><path d="M256 489.931a8.826 8.826 0 0 1-8.828-8.828V30.897A8.826 8.826 0 0 1 256 22.069a8.826 8.826 0 0 1 8.828 8.828v450.207a8.826 8.826 0 0 1-8.828 8.827z" style="fill:#afb9d2"/><path d="M317.793 163.31h-17.655c-4.879 0-8.828-3.953-8.828-8.828s3.948-8.828 8.828-8.828h17.655c4.879 0 8.828 3.953 8.828 8.828s-3.948 8.828-8.828 8.828zm0 70.621h-17.655a8.826 8.826 0 0 1-8.828-8.828 8.826 8.826 0 0 1 8.828-8.828h17.655a8.826 8.826 0 0 1 8.828 8.828 8.826 8.826 0 0 1-8.828 8.828z" style="fill:#ff5050"/><path d="M344.276 198.621h-17.655c-4.879 0-8.828-3.953-8.828-8.828s3.948-8.828 8.828-8.828h17.655c4.879 0 8.828 3.953 8.828 8.828s-3.949 8.828-8.828 8.828z" style="fill:#a0ffb4"/><path d="M467.862 163.31H353.103c-4.879 0-8.828-3.953-8.828-8.828s3.948-8.828 8.828-8.828h114.759c4.879 0 8.828 3.953 8.828 8.828s-3.948 8.828-8.828 8.828z" style="fill:#fff"/><path d="M467.862 233.931H353.103a8.826 8.826 0 0 1-8.828-8.828 8.826 8.826 0 0 1 8.828-8.828h114.759a8.826 8.826 0 0 1 8.828 8.828 8.826 8.826 0 0 1-8.828 8.828z" style="fill:#fff082"/><path d="M467.862 198.621h-88.276c-4.879 0-8.828-3.953-8.828-8.828s3.948-8.828 8.828-8.828h88.276c4.879 0 8.828 3.953 8.828 8.828s-3.948 8.828-8.828 8.828z" style="fill:#d5dced"/><path d="M344.276 269.241h-17.655c-4.879 0-8.828-3.953-8.828-8.828s3.948-8.828 8.828-8.828h17.655c4.879 0 8.828 3.953 8.828 8.828s-3.949 8.828-8.828 8.828z" style="fill:#a0ffb4"/><path d="M467.862 269.241h-88.276c-4.879 0-8.828-3.953-8.828-8.828s3.948-8.828 8.828-8.828h88.276c4.879 0 8.828 3.953 8.828 8.828s-3.948 8.828-8.828 8.828z" style="fill:#d5dced"/><path d="M317.793 304.552h-17.655a8.826 8.826 0 0 1-8.828-8.828 8.826 8.826 0 0 1 8.828-8.828h17.655a8.826 8.826 0 0 1 8.828 8.828 8.826 8.826 0 0 1-8.828 8.828zm0 70.62h-17.655c-4.879 0-8.828-3.953-8.828-8.828s3.948-8.828 8.828-8.828h17.655c4.879 0 8.828 3.953 8.828 8.828s-3.948 8.828-8.828 8.828z" style="fill:#ff5050"/><path d="M344.276 339.862h-17.655c-4.879 0-8.828-3.953-8.828-8.828s3.948-8.828 8.828-8.828h17.655c4.879 0 8.828 3.953 8.828 8.828s-3.949 8.828-8.828 8.828z" style="fill:#a0ffb4"/><path d="M467.862 304.552H353.103a8.826 8.826 0 0 1-8.828-8.828 8.826 8.826 0 0 1 8.828-8.828h114.759a8.826 8.826 0 0 1 8.828 8.828 8.826 8.826 0 0 1-8.828 8.828z" style="fill:#fff"/><path d="M467.862 375.172H353.103c-4.879 0-8.828-3.953-8.828-8.828s3.948-8.828 8.828-8.828h114.759c4.879 0 8.828 3.953 8.828 8.828s-3.948 8.828-8.828 8.828z" style="fill:#fff082"/><path d="M467.862 339.862h-88.276c-4.879 0-8.828-3.953-8.828-8.828s3.948-8.828 8.828-8.828h88.276c4.879 0 8.828 3.953 8.828 8.828s-3.948 8.828-8.828 8.828z" style="fill:#d5dced"/><path d="M344.276 410.483h-17.655c-4.879 0-8.828-3.953-8.828-8.828s3.948-8.828 8.828-8.828h17.655c4.879 0 8.828 3.953 8.828 8.828s-3.949 8.828-8.828 8.828z" style="fill:#a0ffb4"/><path d="M467.862 410.483h-88.276c-4.879 0-8.828-3.953-8.828-8.828s3.948-8.828 8.828-8.828h88.276c4.879 0 8.828 3.953 8.828 8.828s-3.948 8.828-8.828 8.828z" style="fill:#d5dced"/><g transform="translate(23.456 64.278) scale(.58594)"><circle cx="128" cy="128" r="128" fill="#ffcf00"/><path fill="#191919" d="M69.285 58.715 138.571 128l-69.286 69.285-16.97-16.97L104.629 128 52.315 75.685Zm76.8 0L215.371 128l-69.286 69.285-16.97-16.97L181.429 128l-52.314-52.315Z"/></g><path fill="#654ff0" d="M116.258 300.984h57.837v149.998h-150V300.984h57.838c-.011.268-.04.533-.04.805 0 9.501 7.702 17.204 17.203 17.204 9.5 0 17.203-7.703 17.203-17.204 0-.272-.028-.537-.041-.805zm34.176 133.945h10.311l-15.62-53.105H129.45l-12.863 53.105h9.995l2.604-11.825h17.863zm-54.727 0h9.868l12.662-53.105h-9.743l-7.755 36.594h-.127l-7.365-36.594h-9.3l-8.194 36.147h-.127l-6.8-36.147h-9.932l11.444 53.105h10.058l7.879-36.147h.127zm39.717-40.015h4.178l4.981 19.488H131.09z" style="stroke-width:.585938"/></svg>