<svg xmlns="http://www.w3.org/2000/svg" fill="none" viewBox="0 0 56 56" height="60" width="60"><path fill="#000" d="M243.192 50.687V.166A9.626 9.626 0 0 1 245.07 0c.736 0 1.417.055 2.042.166v50.52a11.8 11.8 0 0 1-2.042.167 9.583 9.583 0 0 1-1.878-.166z" style="fill:#fff;fill-opacity:1" transform="translate(-195.192 2.649)"/><g style="fill:#fff;fill-opacity:1"><path d="M47.588-2.706c.036-.81.257-1.694.662-2.65.442-.995.94-1.768 1.491-2.32 2.908 1.583 5.466 2.374 7.675 2.374 1.214 0 2.19-.24 2.926-.717.773-.48 1.16-1.123 1.16-1.933 0-1.288-.994-2.32-2.982-3.092l-3.092-1.16c-4.638-1.693-6.957-4.398-6.957-8.116 0-1.325.24-2.503.718-3.534a7.992 7.992 0 0 1 2.098-2.705c.92-.773 2.006-1.362 3.258-1.767 1.251-.405 2.65-.607 4.196-.607.7 0 1.472.055 2.32.165.882.11 1.766.276 2.65.497.883.184 1.73.405 2.54.663s1.508.533 2.097.828c0 .92-.184 1.877-.552 2.87-.368.995-.865 1.73-1.49 2.21-2.909-1.29-5.43-1.933-7.565-1.933-.957 0-1.712.24-2.264.718-.552.442-.828 1.03-.828 1.767 0 1.14.92 2.043 2.761 2.705l3.368 1.215c2.43.847 4.233 2.006 5.411 3.479 1.178 1.473 1.767 3.184 1.767 5.135 0 2.613-.976 4.71-2.927 6.294C64.08-.774 61.281 0 57.637 0c-3.57 0-6.92-.903-10.049-2.707z" style="fill:#fff;fill-opacity:1" transform="translate(-24.852 46.093)"/><path d="M21.106-27.33c.11.553.165 1.087.165 1.6 0 .48-.055.996-.165 1.548l-7.013-.055v18.55c0 1.547.718 2.32 2.154 2.32h4.196a4.89 4.89 0 0 1 .387 1.877c0 .626-.037 1.012-.11 1.16-1.694.22-3.443.33-5.246.33-3.57 0-5.356-1.527-5.356-4.582v-19.654l-3.92.055a7.91 7.91 0 0 1-.166-1.547c0-.515.055-1.05.166-1.601l3.92.055v-5.798c0-.994.147-1.693.442-2.098.294-.442.865-.662 1.71-.662h1.492l.33.33v8.283z" style="fill:#fff;fill-opacity:1" transform="translate(-2.032 45.89)"/></g></svg>