<svg xmlns="http://www.w3.org/2000/svg" viewBox="0 0 600 595" height="60" width="61"><g fill="none" fill-rule="evenodd"><path fill="#fff" d="m342.277 9.4 195.971 87.165C575.801 113.268 600 150.515 600 191.616v211.961c0 41.1-24.199 78.348-61.752 95.051l-195.971 87.165a104.029 104.029 0 0 1-84.554 0L61.752 498.628C24.199 481.925 0 444.678 0 403.578V191.615c0-41.1 24.199-78.348 61.752-95.05L257.723 9.4a104.029 104.029 0 0 1 84.554 0z"/><path stroke="#202020" stroke-opacity=".3" stroke-width="24.247" d="M327.97 42.47a68.877 68.877 0 0 0-56.109.037l-196.786 87.92c-23.663 10.572-38.9 34.067-38.9 59.985v213.356c0 26.74 15.739 50.973 40.167 61.848l195.557 87.055a68.877 68.877 0 0 0 56.006.008l195.732-87.07c24.437-10.872 40.184-35.11 40.184-61.856v-212.32c0-26.738-15.738-50.972-40.166-61.847L327.97 42.47z" class="sc-gsDKAQ fSXzzY"/><path stroke="#202020" stroke-opacity=".6" stroke-width="24.007" d="M337.399 20.368a92.026 92.026 0 0 0-74.798 0l-195.97 87.165c-33.221 14.775-54.628 47.725-54.628 84.083v211.961c0 36.358 21.407 69.308 54.627 84.084l195.971 87.164a92.026 92.026 0 0 0 74.798 0l195.97-87.164c33.221-14.776 54.628-47.726 54.628-84.084v-211.96c0-36.359-21.407-69.309-54.627-84.084L337.399 20.368z" class="sc-bdvvtL bLFAyd"/><text x="50%" y="60%" fill="#202020" font-family="Helvetica, sans-serif" font-size="230" letter-spacing="-5.5" text-anchor="middle">Rl</text><text x="50%" y="71%" fill="#202020" font-family="Helvetica-Bold, Helvetica, sans-serif" font-size="44" font-weight="bold" letter-spacing="1" text-anchor="middle">REACT LIVE</text></g></svg>