<svg xmlns="http://www.w3.org/2000/svg" fill="none" viewBox="0 0 250 56" height="60" width="268"><path fill="#000" d="M15.074 15.847c.11.552.165 1.086.165 1.6 0 .48-.055.995-.165 1.547l-7.013-.055V37.49c0 1.546.718 2.319 2.154 2.319h4.196a4.89 4.89 0 0 1 .387 1.877c0 .626-.037 1.012-.11 1.16-1.694.22-3.443.33-5.246.33-3.57 0-5.356-1.527-5.356-4.582V18.94l-3.92.055A7.91 7.91 0 0 1 0 17.448c0-.515.055-1.05.166-1.601l3.92.055v-5.798c0-.994.147-1.693.442-2.098.294-.442.865-.662 1.711-.662H7.73l.331.33v8.283zm26.717.276-7.564 25.895c-1.399 4.749-2.89 8.099-4.472 10.05s-3.957 2.926-7.123 2.926c-1.62 0-3.11-.24-4.472-.718-.11-1.03.184-2.025.883-2.982 1.141.405 2.356.608 3.644.608 1.951 0 3.442-.663 4.473-1.988 1.03-1.325 1.969-3.386 2.816-6.184l.165-.552c-.957-.074-1.693-.295-2.208-.663-.479-.368-.884-1.049-1.215-2.043l-7.73-24.294c1.14-.479 1.95-.718 2.43-.718 1.067 0 1.785.644 2.153 1.933l4.362 13.859c.147.441.994 3.312 2.54 8.613.073.258.257.387.552.387l6.736-24.405c.478-.148 1.104-.221 1.877-.221.81 0 1.49.11 2.043.331zM52.4 41.135v10.932c0 .994-.146 1.694-.44 2.099-.295.441-.884.662-1.768.662h-1.49l-.332-.331V16.012l.332-.331h1.435c.884 0 1.473.24 1.767.718.331.441.497 1.178.497 2.208v.276c2.208-2.466 4.84-3.699 7.896-3.699 3.129 0 5.484 1.27 7.067 3.81 1.583 2.503 2.374 5.981 2.374 10.435 0 2.172-.294 4.123-.883 5.853-.552 1.73-1.307 3.203-2.264 4.417-.92 1.178-1.988 2.098-3.202 2.761-1.215.626-2.467.939-3.755.939-2.54 0-4.95-.755-7.233-2.264zm0-17.945v14.19c2.246 1.657 4.363 2.485 6.35 2.485 1.988 0 3.626-.883 4.915-2.65 1.288-1.767 1.932-4.436 1.932-8.006 0-1.767-.165-3.295-.497-4.583-.294-1.325-.7-2.411-1.214-3.258-.516-.883-1.123-1.528-1.823-1.932a3.807 3.807 0 0 0-2.153-.663c-1.472 0-2.871.386-4.196 1.16-1.325.772-2.43 1.858-3.313 3.257zm45.297 7.454H80.581c.184 6.258 2.558 9.387 7.122 9.387 2.503 0 5.172-.773 8.006-2.32.81.737 1.307 1.676 1.491 2.817-3.018 2.061-6.405 3.092-10.16 3.092-1.913 0-3.551-.35-4.913-1.05a9.727 9.727 0 0 1-3.368-2.981c-.847-1.288-1.473-2.798-1.878-4.528-.405-1.73-.607-3.625-.607-5.687 0-2.098.24-4.012.718-5.742.515-1.73 1.251-3.221 2.208-4.473.957-1.251 2.098-2.227 3.424-2.926 1.362-.7 2.908-1.049 4.638-1.049 1.693 0 3.202.313 4.527.939 1.362.589 2.485 1.417 3.368 2.484.92 1.031 1.62 2.283 2.099 3.755.478 1.435.717 2.982.717 4.638 0 .663-.037 1.307-.11 1.932-.037.59-.092 1.16-.166 1.712zm-17.116-3.147h13.251v-.718c0-2.54-.533-4.583-1.601-6.129s-2.669-2.319-4.804-2.319c-2.098 0-3.736.829-4.914 2.485-1.14 1.656-1.785 3.883-1.932 6.68zm22.8 13.528c.036-.81.257-1.694.662-2.65.442-.995.939-1.768 1.491-2.32 2.908 1.583 5.466 2.374 7.675 2.374 1.214 0 2.19-.239 2.926-.717.773-.479 1.16-1.123 1.16-1.933 0-1.288-.994-2.319-2.982-3.092l-3.092-1.16c-4.638-1.693-6.957-4.398-6.957-8.116 0-1.325.239-2.503.718-3.534a7.992 7.992 0 0 1 2.098-2.705c.92-.773 2.006-1.362 3.258-1.767 1.251-.405 2.65-.607 4.196-.607.699 0 1.472.055 2.319.165.883.11 1.767.276 2.65.497.884.184 1.73.405 2.54.663s1.509.533 2.098.828c0 .92-.184 1.877-.552 2.871s-.865 1.73-1.491 2.209c-2.908-1.289-5.429-1.933-7.564-1.933-.957 0-1.712.24-2.264.718-.552.442-.828 1.03-.828 1.767 0 1.14.92 2.043 2.761 2.705l3.368 1.215c2.429.847 4.233 2.006 5.411 3.479s1.767 3.184 1.767 5.135c0 2.613-.976 4.711-2.927 6.294-1.951 1.546-4.748 2.32-8.392 2.32-3.571 0-6.921-.903-10.049-2.707zm48.391-9.442h-15.239c.111 2.024.571 3.626 1.38 4.804.847 1.14 2.301 1.711 4.362 1.711 2.135 0 4.583-.626 7.344-1.877 1.067 1.104 1.748 2.558 2.043 4.362-2.945 2.098-6.479 3.147-10.601 3.147-3.902 0-6.865-1.196-8.89-3.589-1.988-2.43-2.981-6.018-2.981-10.767 0-2.208.257-4.196.773-5.963.515-1.804 1.269-3.331 2.263-4.583a10.19 10.19 0 0 1 3.644-2.981c1.436-.7 3.074-1.05 4.915-1.05 1.877 0 3.533.295 4.969.884 1.436.552 2.65 1.362 3.644 2.43.994 1.03 1.73 2.263 2.209 3.699.515 1.435.773 3 .773 4.693 0 .92-.056 1.804-.166 2.65-.11.81-.258 1.62-.442 2.43zm-10.656-11.595c-2.871 0-4.417 2.171-4.638 6.515h9.165v-.663c0-1.766-.368-3.184-1.104-4.251-.736-1.068-1.877-1.601-3.423-1.601zm40.917 4.527v12.037c0 2.356.386 4.104 1.159 5.245-1.178 1.031-2.595 1.547-4.251 1.547-1.583 0-2.669-.35-3.258-1.05-.589-.736-.884-1.877-.884-3.423V26.006c0-1.656-.202-2.816-.607-3.478s-1.159-.994-2.264-.994c-1.951 0-3.773.883-5.466 2.65v18.773c-.552.11-1.141.184-1.767.22-.589.038-1.196.056-1.822.056s-1.251-.018-1.877-.055a12.89 12.89 0 0 1-1.712-.22V15.625l.331-.387h2.761c2.062 0 3.35 1.105 3.865 3.313 2.687-2.319 5.356-3.478 8.006-3.478 2.651 0 4.602.865 5.853 2.595 1.288 1.693 1.933 3.975 1.933 6.846zm5.792 16.51c.036-.81.257-1.694.662-2.65.442-.995.939-1.768 1.491-2.32 2.908 1.583 5.466 2.374 7.675 2.374 1.214 0 2.19-.239 2.926-.717.773-.479 1.16-1.123 1.16-1.933 0-1.288-.994-2.319-2.982-3.092l-3.092-1.16c-4.638-1.693-6.957-4.398-6.957-8.116 0-1.325.239-2.503.718-3.534a7.992 7.992 0 0 1 2.098-2.705c.92-.773 2.006-1.362 3.258-1.767 1.251-.405 2.65-.607 4.196-.607.699 0 1.472.055 2.319.165.883.11 1.767.276 2.65.497.884.184 1.73.405 2.54.663s1.509.533 2.098.828c0 .92-.184 1.877-.552 2.871s-.865 1.73-1.491 2.209c-2.908-1.289-5.429-1.933-7.564-1.933-.957 0-1.712.24-2.264.718-.552.442-.828 1.03-.828 1.767 0 1.14.92 2.043 2.761 2.705l3.368 1.215c2.429.847 4.233 2.006 5.411 3.479s1.767 3.184 1.767 5.135c0 2.613-.976 4.711-2.927 6.294-1.951 1.546-4.748 2.32-8.392 2.32-3.571 0-6.921-.903-10.049-2.707zm48.391-9.442h-15.239c.111 2.024.571 3.626 1.38 4.804.847 1.14 2.301 1.711 4.362 1.711 2.135 0 4.583-.626 7.344-1.877 1.067 1.104 1.748 2.558 2.043 4.362-2.945 2.098-6.479 3.147-10.601 3.147-3.902 0-6.865-1.196-8.89-3.589-1.988-2.43-2.981-6.018-2.981-10.767 0-2.208.257-4.196.773-5.963.515-1.804 1.269-3.331 2.263-4.583a10.186 10.186 0 0 1 3.645-2.981c1.435-.7 3.073-1.05 4.914-1.05 1.877 0 3.533.295 4.969.884 1.436.552 2.65 1.362 3.644 2.43.994 1.03 1.73 2.263 2.209 3.699.515 1.435.773 3 .773 4.693 0 .92-.055 1.804-.166 2.65-.11.81-.258 1.62-.442 2.43zM225.56 19.988c-2.871 0-4.417 2.171-4.638 6.515h9.166v-.663c0-1.766-.369-3.184-1.105-4.251-.736-1.068-1.877-1.601-3.423-1.601zm19.217 30.699V.166A9.626 9.626 0 0 1 246.655 0c.736 0 1.417.055 2.042.166v50.521a11.8 11.8 0 0 1-2.042.166 9.58 9.58 0 0 1-1.878-.166z"/></svg>