<svg xmlns="http://www.w3.org/2000/svg" viewBox="0 0 297 105" height="60" width="170"><defs><clipPath id="a"><path fill="#fff" d="m504.16-311.25-106.92 61.716c-4 2.306-6.46 6.57-6.46 11.184v123.54c0 4.616 2.46 8.878 6.455 11.188l106.92 61.768a12.927 12.927 0 0 0 12.924 0l106.95-61.768a12.92 12.92 0 0 0 6.458-11.188v-123.53c0-4.619-2.46-8.883-6.46-11.189l-106.95-61.716a12.885 12.885 0 0 0-6.458-1.73c-2.23 0-4.46.574-6.456 1.73"/></clipPath></defs><path fill="#565656" d="M67.311 6.974 31.421 27.69a4.332 4.332 0 0 0-2.17 3.754v41.467c0 1.55.826 2.98 2.167 3.756L67.31 97.4a4.339 4.339 0 0 0 4.339 0l35.898-20.733a4.337 4.337 0 0 0 2.168-3.756V31.446a4.333 4.333 0 0 0-2.169-3.756l-35.9-20.716a4.325 4.325 0 0 0-2.167-.58 4.322 4.322 0 0 0-2.167.58"/><g fill="#fff" clip-path="url(#a)" transform="translate(-101.92 111.66) scale(.33567)"><path d="M463.03-49.656h25.146v-100.05h34.847v-22.093h-94.84v22.093h34.847zm112.61 1.616c23.889 0 41.671-12.393 41.671-35.025 0-21.015-12.034-30.356-33.409-39.516l-6.287-2.694c-10.777-4.67-15.447-7.724-15.447-15.268 0-6.107 4.67-10.777 12.035-10.777 7.184 0 11.854 3.053 16.165 10.777l19.579-12.573c-8.263-14.55-19.758-20.118-35.744-20.118-22.453 0-36.822 14.37-36.822 33.23 0 20.476 12.034 30.176 30.176 37.9l6.286 2.694c11.496 5.03 18.322 8.083 18.322 16.704 0 7.185-6.646 12.394-17.064 12.394-12.394 0-19.4-6.466-24.788-15.268l-20.476 11.855c7.364 14.55 22.452 25.686 45.803 25.686z" style="font-feature-settings:normal;font-variant-caps:normal;font-variant-ligatures:normal;font-variant-numeric:normal"/></g><path fill="#333" fill-rule="evenodd" d="M154.448 66.918c0-.65-.342-1.246-.902-1.568l-14.943-8.6a1.76 1.76 0 0 0-.823-.238h-.155c-.285.012-.568.09-.825.238l-14.943 8.6a1.811 1.811 0 0 0-.904 1.568l.033 23.157c0 .322.167.621.451.78.277.166.62.166.896 0l8.881-5.086c.562-.334.904-.922.904-1.566V73.384c0-.644.341-1.242.9-1.562l3.782-2.178a1.794 1.794 0 0 1 1.803 0l3.78 2.178c.56.32.902.918.902 1.562v10.82c0 .643.347 1.235.905 1.565l8.878 5.085a.902.902 0 0 0 1.35-.78zm70.515 12.058a.45.45 0 0 1-.226.39l-5.132 2.959a.452.452 0 0 1-.45 0l-5.133-2.96a.45.45 0 0 1-.226-.39v-5.926c0-.16.085-.31.225-.39l5.133-2.966a.45.45 0 0 1 .451 0l5.133 2.965c.14.08.225.23.225.391zm1.387-43.89a.905.905 0 0 0-1.342.787v22.933a.633.633 0 0 1-.947.547l-3.743-2.156a1.805 1.805 0 0 0-1.804 0l-14.95 8.628a1.805 1.805 0 0 0-.902 1.563v17.258c0 .645.344 1.24.902 1.564l14.949 8.634a1.807 1.807 0 0 0 1.806 0l14.95-8.634c.559-.323.903-.919.903-1.564v-43.02c0-.654-.354-1.258-.926-1.577zm49.778 37.808c.556-.323.899-.918.899-1.56v-4.183c0-.643-.343-1.238-.9-1.561l-14.852-8.624a1.803 1.803 0 0 0-1.809-.002l-14.944 8.627a1.806 1.806 0 0 0-.902 1.563v17.254c0 .649.348 1.247.912 1.568l14.85 8.462a1.804 1.804 0 0 0 1.77.01l8.983-4.992a.902.902 0 0 0 .011-1.572l-15.038-8.632a.902.902 0 0 1-.454-.783v-5.407c0-.323.172-.621.452-.782l4.68-2.698a.901.901 0 0 1 .901 0l4.683 2.698c.28.16.452.46.452.782v4.254a.902.902 0 0 0 1.355.78z"/><path fill="#565656" fill-rule="evenodd" d="M260.15 72.086a.345.345 0 0 1 .347 0l2.868 1.655a.346.346 0 0 1 .173.3v3.312a.347.347 0 0 1-.173.3l-2.868 1.655a.347.347 0 0 1-.347 0l-2.866-1.655a.348.348 0 0 1-.173-.3v-3.312c0-.124.066-.238.173-.3z"/><path fill="#565656" d="m177.658 57.053-14.823 8.556a1.79 1.79 0 0 0-.896 1.55v17.127c0 .64.34 1.231.895 1.552l14.824 8.563a1.79 1.79 0 0 0 1.791 0l14.827-8.563c.554-.32.896-.912.896-1.552V67.16a1.79 1.79 0 0 0-.896-1.55l-14.827-8.557a1.785 1.785 0 0 0-1.79 0"/></svg>