<svg xmlns="http://www.w3.org/2000/svg" xmlns:xlink="http://www.w3.org/1999/xlink" height="60" width="158" viewBox="0 0 15.578 5.934"><defs><linearGradient id="a"><stop offset="0" style="stop-color:#000f33;stop-opacity:1"/><stop offset="1" style="stop-color:#000fff;stop-opacity:1"/></linearGradient><linearGradient xlink:href="#a" id="b" x1="0" x2="15.645" y1="2.967" y2="2.967" gradientUnits="userSpaceOnUse"/></defs><path d="M1.33 0h12.917c1.47 0 1.327 1.315 1.327 2.948v.039c0 1.632.142 2.947-1.327 2.947H1.33C-.14 5.934.004 4.62.004 2.987v-.04C.004 1.316-.14 0 1.33 0z" style="font-size:3.96355px;font-family:Magneto;-inkscape-font-specification:Magneto;opacity:1;fill:url(#b);fill-opacity:1;stroke:none;stroke-width:.217698;stroke-linecap:round;stroke-linejoin:round;stroke-opacity:.501961;paint-order:fill markers stroke"/><path d="m11.306.601-.41.95h2.384c.138 0 .23.035.278.08.049.046.067.093.067.195a.605.605 0 0 1-.146.407v.003a1.508 1.508 0 0 1-.32.27c-.12.08-.21.162-.253.296v.006l-.003.008c-.01.042-.008.065-.008.097 0 .116.037.197.091.316a.55.55 0 0 1 .06.204.398.398 0 0 1-.059.227.499.499 0 0 1-.215.175c-.126.06-.292.087-.483.091l.58-2.306h-.889l-.751 3.019h1.122a2 2 0 0 0 .939-.213c.191-.1.342-.232.449-.402a1.16 1.16 0 0 0 .159-.61c0-.182-.059-.38-.127-.58a2.84 2.84 0 0 0 .481-.409 1.28 1.28 0 0 0 .328-.842c.01-.33-.113-.64-.318-.798-.17-.128-.4-.184-.698-.184zm.11.28h2.148c.281 0 .486.056.606.148.15.115.216.277.216.556 0 .214-.076.417-.258.628a2.795 2.795 0 0 1-.516.437l-.094.065.052.126c.079.172.125.37.134.574a.779.779 0 0 1-.113.428.914.914 0 0 1-.368.325 1.865 1.865 0 0 1-.873.193h-.844l.614-2.463h.472l-.58 2.314h.234c.229 0 .424-.036.59-.113a.694.694 0 0 0 .296-.254.77.77 0 0 0 .108-.41.84.84 0 0 0-.09-.357h.001c-.047-.102-.061-.179-.061-.164a.414.414 0 0 1 .154-.159 1.63 1.63 0 0 0 .362-.313.966.966 0 0 0 .216-.614.591.591 0 0 0-.157-.427c-.1-.091-.226-.124-.385-.124h-2.036zM7.639.6 5.976.601c-.361 0-.672.125-.924.376L5.05.98c-.281.275-.445.732-.436 1.215 0 .353.107.656.308.859.18.18.406.263.664.263a.615.615 0 0 0 .45-.178c.144-.137.229-.368.226-.614 0-.228-.1-.355-.222-.499-.113-.132-.22-.281-.37-.281a.52.52 0 0 0-.378.172c-.07.072-.094.187-.133.29-.002-.016-.006-.018-.006-.041a.58.58 0 0 1 .171-.44.515.515 0 0 1 .38-.175h.951l-.524 2.09a5.526 5.526 0 0 1-.174.594c-.054.141-.117.193-.177.263-.024-.145-.046-.294-.13-.4a.53.53 0 0 0-.42-.224.446.446 0 0 0-.117.014l-.636.048H3.79l-.277-.848c.307-.18.57-.369.742-.587.19-.246.297-.531.297-.836.008-.327-.107-.635-.302-.81C4.053.68 3.78.603 3.427.603H1.472l-.415.948h2.1c.147 0 .247.042.302.094.054.056.078.12.078.246 0 .217-.092.396-.324.566h-.002c-.096.063-.194.12-.294.17h-.001c-.083.044-.1.048-.153.073l.27-1.078h-.891l-.753 3.017h.886l.352-1.396.283.886c.034.13.084.251.148.356.08.106.186.162.296.154h1.275c-.002.245.083.476.227.613a.702.702 0 0 0 .517.206c.325 0 .64-.163.933-.475.348-.369.605-.894.771-1.56L7.54 1.55h.834l-.773 3.09h.456c.194 0 .382-.101.527-.286 0 0 1.363-1.73.712-.9l-.136.577a.852.852 0 0 0-.023.186c0 .126.039.249.11.323a.337.337 0 0 0 .26.1h1.67c.318 0-1.69-.327-.538-.286.141.004.484-.005.755-.242l.036-.175h-1.358l.156-.626.008-.034a.932.932 0 0 0 .032-.262.568.568 0 0 0-.1-.351c-.046-.058-.114-.064-.178-.079L11.564.603h-.882L8.959 2.824c-.427.995.339-1.422.339-1.422.027-.102.041-.209.043-.317a.544.544 0 0 0-.12-.366.388.388 0 0 0-.3-.116H7.775V.6zM1.581.879h1.847c.332 0 .57.077.717.209.147.13.212.304.212.577 0 .216-.07.42-.234.63-.165.21-.422.42-.771.61l-.098.055.41 1.25h.654c-.012.02-.009.049-.029.068a.286.286 0 0 1-.207.083h-.728c-.082 0-.127-.027-.157-.069a1.575 1.575 0 0 1-.108-.276l-.328-1.027c.063-.028.111-.043.223-.102.108-.053.215-.114.318-.184l.002-.003a.984.984 0 0 0 .427-.81.674.674 0 0 0-.16-.471c-.104-.104-.244-.142-.413-.142h-1.75zm4.395 0H7.5l-.093.376-.127.296h.054l-.442 1.783c-.155.625-.39 1.096-.702 1.43-.269.282-.537.42-.819.42a.54.54 0 0 1-.404-.155.483.483 0 0 1-.145-.376.52.52 0 0 1 .115-.348.353.353 0 0 1 .584-.001.526.526 0 0 1 .113.349.756.756 0 0 1-.005.085l-.03.252.163-.1c.147-.09.267-.27.364-.518a5.7 5.7 0 0 0 .189-.636l.614-2.46H5.704a.682.682 0 0 0-.496.227c-.155.15-.249.397-.251.663 0 .092.01.177.042.251.032.074.084.127.145.145l.097.028.02-.136a.519.519 0 0 1 .146-.312V2.14a.347.347 0 0 1 .262-.117c.112 0 .2.044.279.139.08.085.125.221.12.363a.484.484 0 0 1-.143.387v0a.459.459 0 0 1-.34.13.742.742 0 0 1-.55-.215c-.15-.138-.236-.378-.227-.63 0-.437.114-.75.356-.995a1.1 1.1 0 0 1 .812-.323zm1.823 0h1.122c.095 0 .154.027.182.058.03.03.042.063.042.148 0 .058-.01.136-.032.229l-.58 2.433L10.756.88h.295L9.709 2.565l.002-.004-.205.26-1.053 1.325c-.108.141-.25.218-.396.215h-.18l.771-3.084h-1.02zM2.28 1.897h.478l-.224.897-.046.011.023.073-.371 1.483h-.475zm7.371.925h.256c.073 0 .115.023.135.048.02.025.032.06.032.144a.87.87 0 0 1-.03.204l-.246.993 1.43-.156c-.016.016-.718.203-.736.218a.515.515 0 0 1-.322.088h-.662c-.078 0-.124-.022-.144-.043-.02-.022-.03-.038-.03-.102 0-.034.004-.068.012-.1zM4.933 3.975a.671.671 0 0 0-.125.122.871.871 0 0 0-.178.529c-.098-.019-.294-.056-.231-.116v-.003a.624.624 0 0 0 .176-.426z" style="color:#000;font-size:3.96355px;font-family:Magneto;-inkscape-font-specification:Magneto;mix-blend-mode:normal;fill:none;fill-opacity:1;stroke:#00e5ff;stroke-width:.307137;stroke-linecap:square;stroke-linejoin:miter;stroke-miterlimit:4.5;stroke-dasharray:none;stroke-dashoffset:0;stroke-opacity:1;paint-order:fill markers stroke"/><path d="m1.526.74-.294.675h.954c.362.004.723-.01 1.084.006a.396.396 0 0 1 .361.384.82.82 0 0 1-.326.74 4.07 5.758 0 0 1-.676.364l.45 1.08c.069.202.127.481.313.506.169.011.834.01 1.347.008a.84.84 0 0 0-.013.15c0 .203.062.366.185.488.12.12.274.18.461.18.303 0 .595-.149.876-.446.331-.352.577-.85.736-1.497l.486-1.96 1.042-.003L7.74 4.5h.317a.673.953 0 0 0 .461-.252l.986-1.242-.25 1.066a.633.633 0 0 0-.018.142c0 .19.09.286.272.286h.66c.308 0 .492-.142.55-.428h-.785l.2-.81a.535.757 0 0 0 .037-.25c0-.219-.09-.33-.265-.33h-.143l1.01-1.27h2.506c.297 0 .444.137.444.413a.468.663 0 0 1-.181.514 1.552 2.195 0 0 1-.34.29c-.112.074-.18.152-.206.23a.33.33 0 0 0-.004.053c0 .05.026.13.076.24a.38.538 0 0 1 .075.282.552.552 0 0 1-.337.531c-.153.07-.339.107-.56.107h-.096l.58-2.314h-.68L11.368 4.5h.982a2.615 3.699 0 0 0 .907-.203c.363-.192.544-.485.544-.883a.927 1.312 0 0 0-.145-.643c.239-.166.417-.318.534-.454.194-.229.292-.472.292-.734 0-.316-.089-.54-.266-.676-.145-.11-.362-.166-.651-.166h-2.259l.002-.001h-.589L8.748 3.284l.458-1.926a.602.852 0 0 0 .037-.272c0-.23-.107-.345-.322-.345L7.637.747l.001-.006H5.976a1.18 1.18 0 0 0-.869.349c-.264.266-.396.635-.396 1.108 0 .314.09.562.268.743.161.16.363.24.607.24a.538.538 0 0 0 .394-.156c.123-.12.185-.286.185-.5a.699.699 0 0 0-.155-.47.431.431 0 0 0-.34-.171.434.434 0 0 0-.32.145c-.1.1-.162.232-.186.398-.073-.021-.11-.109-.11-.263 0-.22.071-.404.212-.55a.598.598 0 0 1 .439-.2h1.087L6.224 3.69c-.07.282-.131.487-.181.616-.09.231-.197.384-.318.457a.965.965 0 0 0 .007-.11.713.713 0 0 0-.146-.452.46.46 0 0 0-.272-.178v-.006l-.027.001a.444.444 0 0 0-.15.006l-1.303.051-.34-1.04a1.956 2.767 0 0 0 .784-.766c.195-.284.24-.762.075-1.09-.182-.347-.515-.413-.8-.434C2.877.737 2.203.744 1.526.74zm.683 1.019L1.527 4.5h.679l.69-2.742z" style="color:#000;font-size:3.96355px;font-family:Magneto;-inkscape-font-specification:Magneto;mix-blend-mode:normal;fill:#000fff;fill-opacity:1;stroke:none;stroke-width:0;stroke-linecap:square;stroke-linejoin:miter;stroke-miterlimit:4.5;stroke-dasharray:none;stroke-opacity:1"/></svg>