<svg xmlns="http://www.w3.org/2000/svg" viewBox="0 0 188 28" height="60" width="403"><path fill="#5A29E4" d="m93.295 3.652-6.939 5.653h4.532V27.68l2.407-1.939V3.652Zm2 20.448 7.061-5.795h-4.658V.35l-2.403 1.673V24.1Zm87.4-17.147c.8.416 1.376.768 1.728 1.056l2.496-4.752c-1.248-.768-2.752-1.456-4.512-2.064-1.728-.608-3.6-.912-5.616-.912-1.92 0-3.696.32-5.328.96-1.6.64-2.88 1.584-3.84 2.832-.928 1.248-1.392 2.8-1.392 4.656 0 2.08.656 3.68 1.968 4.8 1.344 1.088 3.392 1.984 6.144 2.688 2.208.576 3.984 1.104 5.328 1.584 1.376.448 2.064 1.2 2.064 2.256 0 1.568-1.472 2.352-4.416 2.352-1.472 0-2.864-.176-4.176-.528-1.312-.352-2.464-.784-3.456-1.296-.96-.512-1.648-.976-2.064-1.392l-2.592 5.04c1.664 1.056 3.568 1.888 5.712 2.496 2.144.608 4.304.912 6.48.912 1.888 0 3.648-.256 5.28-.768 1.632-.544 2.944-1.408 3.936-2.592 1.024-1.216 1.536-2.816 1.536-4.8 0-1.632-.384-2.944-1.152-3.936-.736-1.024-1.808-1.84-3.216-2.448-1.376-.608-3.008-1.152-4.896-1.632-2.144-.512-3.776-.976-4.896-1.392-1.088-.416-1.632-1.12-1.632-2.112 0-1.696 1.504-2.544 4.512-2.544 1.12 0 2.208.16 3.264.48 1.056.288 1.968.64 2.736 1.056Z" style="fill:#000;fill-opacity:1"/><path fill="#5A29E4" fill-rule="evenodd" d="M132.182 27.497c-2.112 0-4.032-.368-5.76-1.104-1.728-.768-3.217-1.792-4.465-3.072a14.22 14.22 0 0 1-2.88-4.416 13.138 13.138 0 0 1-1.008-5.04c0-1.76.352-3.456 1.056-5.088a13.385 13.385 0 0 1 2.977-4.32 14.148 14.148 0 0 1 4.511-3.024c1.728-.736 3.616-1.104 5.664-1.104 2.112 0 4.033.4 5.761 1.2 1.728.768 3.2 1.808 4.416 3.12a13.649 13.649 0 0 1 2.879 4.368 13.003 13.003 0 0 1 1.009 4.992c0 1.76-.352 3.456-1.056 5.088a14.11 14.11 0 0 1-2.977 4.32c-1.248 1.248-2.735 2.24-4.463 2.976-1.728.736-3.616 1.104-5.664 1.104Zm-8.257-13.584c0 1.44.337 2.816 1.009 4.128a8.284 8.284 0 0 0 2.831 3.12c1.248.8 2.736 1.2 4.464 1.2 1.76 0 3.248-.416 4.464-1.248 1.217-.864 2.144-1.936 2.784-3.216.64-1.312.961-2.656.961-4.032 0-1.44-.336-2.8-1.008-4.08a7.812 7.812 0 0 0-2.881-3.072c-1.216-.8-2.671-1.2-4.367-1.2-1.76 0-3.265.416-4.513 1.248a8.276 8.276 0 0 0-2.784 3.168 8.804 8.804 0 0 0-.96 3.984ZM0 27.305 11.712.473h4.752l11.664 26.832h-6.144l-2.688-6.288H8.88l-2.688 6.288H0ZM14.112 7.529l-3.936 8.448h7.728l-3.792-8.448Z" clip-rule="evenodd" style="fill:#000;fill-opacity:1"/><path fill="#5A29E4" d="m50.821.473 7.392 9.504L65.605.473h6.288L61.285 14.057l10.272 13.248H65.27l-7.056-9.12-7.008 9.12h-6.384l10.32-13.248L44.485.473h6.336Z" style="fill:#000;fill-opacity:1"/></svg>