<svg xmlns="http://www.w3.org/2000/svg" viewBox="0 0 476 78" height="60" width="366"><g fill="none"><path fill="#5468FF" d="M36.493 77.29H3.074A3.067 3.067 0 0 1 0 74.227h36.523c12.769.062 24.6-6.663 31.038-17.642a35.45 35.45 0 0 0 .174-35.584C61.405 9.962 49.639 3.122 36.87 3.061H0A3.067 3.067 0 0 1 3.074 0H36.87a38.94 38.94 0 0 1 27.473 11.369 38.598 38.598 0 0 1 11.341 27.384c-.06 21.366-17.74 38.536-39.19 38.536z"/><path fill="#21243D" d="M0 69.045h23.71a11.78 11.78 0 0 0 7.934-3.031H0v3.03zM0 60.8h36.374c.734-.988 1.418-1.975 2.053-3.071H0v3.07zm0-8.255h41.025a30.04 30.04 0 0 0 1.091-3.06H0v3.06zm0-8.244h43.306a38.01 38.01 0 0 0 .337-3.06H0v3.06zm0-8.244h43.633a38.761 38.761 0 0 0-.337-3.07H0v3.07zm0-8.254h42.116a36.178 36.178 0 0 0-1.09-3.061H0v3.06zm0-8.245h38.427a35.849 35.849 0 0 0-2.053-3.06H0v3.06zM0 8.244v3.07h31.674a11.76 11.76 0 0 0-7.933-3.03L0 8.244zm135.68 41.834a19.229 19.229 0 0 1-7.934 7.75 25.379 25.379 0 0 1-12.197 2.785h-16.58v-43.69h16.57c4.24-.11 8.44.826 12.227 2.725a18.884 18.884 0 0 1 7.934 7.662 22.865 22.865 0 0 1 2.766 11.364 23.076 23.076 0 0 1-2.786 11.404zm-11.414-2.192c2.294-2.179 3.44-5.25 3.44-9.212 0-3.962-1.146-7.03-3.44-9.202-2.3-2.185-5.52-3.278-9.66-3.278h-5.017v24.96h5.018c4.145 0 7.365-1.09 9.659-3.268zm51.19-28.761a20.977 20.977 0 0 1 7.933 7.968 22.778 22.778 0 0 1 2.915 11.522 22.76 22.76 0 0 1-2.975 11.552 21.175 21.175 0 0 1-8.012 8.007 23.274 23.274 0 0 1-22.402 0 21.086 21.086 0 0 1-8.003-8.007 22.631 22.631 0 0 1-2.975-11.552 22.503 22.503 0 0 1 2.975-11.522 21.186 21.186 0 0 1 8.003-7.968 23.404 23.404 0 0 1 22.471 0h.07zM155.9 29.443c-2.043 2.244-3.068 5.302-3.074 9.172-.007 3.87 1.018 6.918 3.074 9.143 4.576 4.528 11.965 4.528 16.54 0 2.057-2.258 3.085-5.306 3.085-9.143 0-3.838-1.025-6.885-3.074-9.143-4.595-4.51-11.976-4.51-16.57 0l.019-.03zm69.208-8.56a20.096 20.096 0 0 1 7.11 11.847h-11.225a10.247 10.247 0 0 0-3.818-4.739 10.695 10.695 0 0 0-6.109-1.738 9.34 9.34 0 0 0-7.516 3.367c-1.904 2.258-2.856 5.286-2.856 9.084s.952 6.812 2.856 9.044a9.359 9.359 0 0 0 7.516 3.367 10.685 10.685 0 0 0 6.109-1.689 10.317 10.317 0 0 0 3.818-4.69h11.236a20.205 20.205 0 0 1-7.11 11.849c-3.657 2.942-8.284 4.416-13.884 4.423a21.892 21.892 0 0 1-11.226-2.814 19.16 19.16 0 0 1-7.487-7.899 24.683 24.683 0 0 1-2.638-11.552 24.693 24.693 0 0 1 2.638-11.561 19.16 19.16 0 0 1 7.487-7.9 21.892 21.892 0 0 1 11.216-2.784c5.606 0 10.234 1.462 13.883 4.384zm41.898 33.796a12.477 12.477 0 0 1-5.216 4.64 18.554 18.554 0 0 1-8.35 1.728c-4.918 0-8.971-1.194-12.158-3.584a12.947 12.947 0 0 1-5.216-10.011h11.295a5.913 5.913 0 0 0 1.766 3.89 5.468 5.468 0 0 0 3.877 1.422 4.524 4.524 0 0 0 3.233-1.106 3.94 3.94 0 0 0 1.18-2.962 3.822 3.822 0 0 0-1.091-2.775 8.312 8.312 0 0 0-2.697-1.826c-1.071-.474-2.569-.988-4.473-1.699a54.609 54.609 0 0 1-6.793-2.754 12.538 12.538 0 0 1-4.532-3.95 11.445 11.445 0 0 1-1.894-6.832 11.427 11.427 0 0 1 1.984-6.734 12.545 12.545 0 0 1 5.503-4.354 20.089 20.089 0 0 1 8.033-1.51c4.879 0 8.756 1.151 11.632 3.455a13.211 13.211 0 0 1 4.88 9.518h-11.484a5.913 5.913 0 0 0-1.587-3.436 4.673 4.673 0 0 0-3.441-1.264 4.515 4.515 0 0 0-2.975.988 3.625 3.625 0 0 0-1.14 2.903 3.664 3.664 0 0 0 .991 2.626 7.796 7.796 0 0 0 2.579 1.767c1.03.454 2.518 1.03 4.462 1.728a48.822 48.822 0 0 1 6.892 2.814c1.83.97 3.403 2.357 4.592 4.048a11.544 11.544 0 0 1 1.923 6.912c.016 2.242-.6 4.445-1.775 6.358zm18.257-29.354v9.153h14.875v7.978h-14.875v9.705h16.69v8.462h-27.261v-43.7h27.3v8.402zm49.752 27.32h-16.442l-2.737 7.968H304.67l16.075-43.374h12.227l16.095 43.374h-11.315l-2.737-7.968zm-2.727-8.037-5.464-16.064-5.524 16.064h10.988zm42.562 16.005-9.5-16.499h-2.4v16.499h-10.61v-43.69h18.127c3.042-.08 6.06.55 8.816 1.836a12.455 12.455 0 0 1 5.404 4.937 14.04 14.04 0 0 1 1.795 7.139 12.591 12.591 0 0 1-2.638 8.096 13.479 13.479 0 0 1-7.665 4.512l10.432 17.18-11.761-.01zm-11.9-23.696h6.585a6.625 6.625 0 0 0 4.66-1.373 5.357 5.357 0 0 0 1.488-4.107 5.436 5.436 0 0 0-1.517-4.078 6.395 6.395 0 0 0-4.621-1.48h-6.595v11.038zm61.86-16.035a20.047 20.047 0 0 1 7.11 11.848h-11.235a10.188 10.188 0 0 0-3.818-4.759 10.675 10.675 0 0 0-6.109-1.737 9.3 9.3 0 0 0-7.507 3.386c-1.904 2.258-2.856 5.286-2.856 9.084s.952 6.812 2.856 9.044a9.33 9.33 0 0 0 7.507 3.367 10.665 10.665 0 0 0 6.109-1.728 10.258 10.258 0 0 0 3.818-4.69h11.235a20.156 20.156 0 0 1-7.11 11.848c-3.656 2.942-8.284 4.417-13.883 4.423a21.892 21.892 0 0 1-11.236-2.814 19.08 19.08 0 0 1-7.477-7.898 24.595 24.595 0 0 1-2.638-11.552 24.595 24.595 0 0 1 2.638-11.562 19.08 19.08 0 0 1 7.477-7.899 21.892 21.892 0 0 1 11.236-2.804c5.6.04 10.227 1.52 13.883 4.443zm50.357-3.959v43.69h-10.68V42.387h-16.63v18.226h-10.611v-43.69h10.61v16.933h16.63V16.923z"/></g></svg>